# xmcd
#
# Track frame offsets: 
#        187
#        18097
#        33149
#        45574
#        65592
#        78062
#        96574
#        107174
#        132504
#        153419
#        176382
#
# Disc length: 2708 seconds
#
# Revision: 4
# Processed by: cddbd v1.5.2PL0 Copyright (c) Steve Scherf et al.
# Submitted via: ExactAudioCopy v1.0b2
#
DISCID=820a920b
DTITLE=Stevie Wonder - Natural Wonder [CD2]
DYEAR=1995
DGENRE=R&B
TTITLE0=Overjoyed
TTITLE1=My Cherie Amour
TTITLE2=Signed, Sealed, Delivered, I'm Yours
TTITLE3=Living For The City
TTITLE4=Sir Duke
TTITLE5=I Wish
TTITLE6=You Are The Sunshine Of My Life
TTITLE7=Superstition
TTITLE8=I Just Called To Say I Love You
TTITLE9=For You Love
TTITLE10=Another Star
EXTD=YEAR: 1995
EXTT0=
EXTT1=
EXTT2=
EXTT3=
EXTT4=
EXTT5=
EXTT6=
EXTT7=
EXTT8=
EXTT9=
EXTT10=
PLAYORDER=
